<?xml version="1.0" encoding="UTF-8"?>
<svg width="135px" height="51px" viewBox="0 0 135 51" version="1.1" xmlns="http://www.w3.org/2000/svg" xmlns:xlink="http://www.w3.org/1999/xlink">
    <!-- Generator: Sketch 63.1 (92452) - https://sketch.com -->
    <title>Logo</title>
    <desc>Created with Sketch.</desc>
    <defs>
        <polygon id="path-1" points="0 50.5705645 134.836694 50.5705645 134.836694 0 0 0"></polygon>
    </defs>
    <g id="Stories-maquetados" stroke="none" stroke-width="1" fill="none" fill-rule="evenodd">
        <g id="Autopromo-detalle-300x250" transform="translate(-83.000000, -40.000000)">
            <g id="Logo" transform="translate(83.000000, 40.000000)">
                <path d="M26.4012641,42.3509153 C26.4012641,44.2017218 27.7077157,45.6170444 29.5585222,45.6170444 C31.4637641,45.6170444 32.7157802,44.1472863 32.7157802,42.3509153 C32.7157802,40.5545444 31.4637641,39.0847863 29.5585222,39.0847863 C27.7077157,39.0847863 26.4012641,40.5001089 26.4012641,42.3509153 M34.1311028,42.3509153 C34.1311028,45.018254 32.2258609,46.923496 29.7218286,46.923496 C28.2520706,46.923496 27.2177964,46.3247056 26.5101351,45.4537379 L26.5101351,46.7601895 L25.0948125,46.7601895 L25.0948125,33.314625 L26.5101351,33.314625 L26.5101351,39.2480927 C27.2177964,38.377125 28.2520706,37.7783347 29.7218286,37.7783347 C32.2258609,37.7783347 34.1311028,39.6835766 34.1311028,42.3509153" id="Fill-1" fill="#869FB2"></path>
                <polygon id="Fill-3" fill="#869FB2" points="36.8527137 50.5704556 35.3285202 50.5704556 38.5946492 44.9091653 34.5119879 37.9958589 36.0906169 37.9958589 39.356746 43.5482782 42.4595685 37.9958589 43.9837621 37.9958589"></polygon>
                <polygon id="Fill-5" fill="#869FB2" points="58.3547298 40.9355383 51.169246 40.9355383 51.169246 46.8145706 49.6450524 46.8145706 49.6450524 33.7500544 58.6813427 33.7500544 58.6813427 35.165377 51.169246 35.165377 51.169246 39.5202157 58.3547298 39.5202157"></polygon>
                <path d="M65.8125,38.0502944 L65.4858871,39.4111815 C65.0504032,39.1934395 64.4516129,39.0301331 63.9616935,39.0301331 C62.6008065,39.0301331 61.5665323,40.1188427 61.5665323,41.8063427 L61.5665323,46.7599718 L60.2056452,46.7599718 L60.2056452,37.9414234 L61.5665323,37.9414234 L61.5665323,39.1934395 C62.1653226,38.2680363 63.0907258,37.7781169 64.1794355,37.7781169 C64.8326613,37.7781169 65.3225806,37.8325524 65.8125,38.0502944" id="Fill-7" fill="#869FB2"></path>
                <path d="M67.8809395,41.6975806 L73.5422298,41.6975806 C73.3789234,40.0645161 72.2902137,38.9758065 70.7660202,38.9758065 C69.1329556,39.0302419 68.0986815,40.1189516 67.8809395,41.6975806 M74.9575524,42.3508065 C74.9575524,42.5141129 74.9575524,42.7318548 74.9031169,42.8951613 L67.826504,42.8951613 C68.044246,44.8004032 69.3506976,45.7802419 70.9293266,45.7802419 C72.0180363,45.7802419 72.997875,45.3447581 73.7055363,44.6915323 L74.4676331,45.6169355 C73.3789234,46.6512097 72.1269073,46.9778226 70.8204556,46.9778226 C68.2075524,46.9778226 66.356746,45.1270161 66.356746,42.4052419 C66.356746,39.6834677 68.2075524,37.8326613 70.7660202,37.8326613 C73.2156169,37.7782258 74.9575524,39.6290323 74.9575524,42.3508065" id="Fill-9" fill="#869FB2"></path>
                <path d="M77.8427964,41.6975806 L83.5040867,41.6975806 C83.3407802,40.0645161 82.2520706,38.9758065 80.727877,38.9758065 C79.149248,39.0302419 78.0605383,40.1189516 77.8427964,41.6975806 M84.9194093,42.3508065 C84.9194093,42.5141129 84.9194093,42.7318548 84.8649738,42.8951613 L77.7883609,42.8951613 C78.0061028,44.8004032 79.3125544,45.7802419 80.8911835,45.7802419 C81.9798931,45.7802419 82.9597319,45.3447581 83.6673931,44.6915323 L84.4294899,45.6169355 C83.3407802,46.6512097 82.0887641,46.9778226 80.7823125,46.9778226 C78.1694093,46.9778226 76.3186028,45.1270161 76.3186028,42.4052419 C76.3186028,39.6834677 78.1694093,37.8326613 80.727877,37.8326613 C83.1774738,37.7782258 84.9194093,39.6290323 84.9194093,42.3508065" id="Fill-11" fill="#869FB2"></path>
                <path d="M87.9133609,42.3509153 C87.9133609,44.2017218 89.2198125,45.6170444 91.070619,45.6170444 C92.9758609,45.6170444 94.227877,44.1472863 94.227877,42.3509153 C94.227877,40.5545444 92.9758609,39.0847863 91.070619,39.0847863 C89.2198125,39.0847863 87.9133609,40.5001089 87.9133609,42.3509153 M95.6431996,42.3509153 C95.6431996,45.018254 93.7379577,46.923496 91.2339254,46.923496 C89.7641673,46.923496 88.7298931,46.3247056 88.0222319,45.4537379 L88.0222319,50.5162379 L86.6069093,50.5162379 L86.6069093,37.9416411 L88.0222319,37.9416411 L88.0222319,39.2480927 C88.7298931,38.377125 89.7641673,37.7783347 91.2339254,37.7783347 C93.7379577,37.7783347 95.6431996,39.6835766 95.6431996,42.3509153" id="Fill-13" fill="#869FB2"></path>
                <mask id="mask-2" fill="white">
                    <use xlink:href="#path-1"></use>
                </mask>
                <g id="Clip-16"></g>
                <path d="M97.2217742,46.7600806 L98.6370968,46.7600806 L98.6370968,37.9415323 L97.2217742,37.9415323 L97.2217742,46.7600806 Z M98.9092742,34.8387097 C98.9092742,35.3830645 98.4737903,35.8185484 97.9294355,35.8185484 C97.3850806,35.8185484 96.9495968,35.3830645 96.9495968,34.8387097 C96.9495968,34.2943548 97.3850806,33.858871 97.9294355,33.858871 C98.4737903,33.8044355 98.9092742,34.2399194 98.9092742,34.8387097 L98.9092742,34.8387097 Z" id="Fill-15" fill="#869FB2" mask="url(#mask-2)"></path>
                <polygon id="Fill-17" fill="#869FB2" mask="url(#mask-2)" points="102.828629 41.5343831 103.53629 41.5343831 106.965726 37.9416411 108.707661 37.9416411 104.679435 42.0787379 108.762097 46.7601895 107.020161 46.7601895 103.53629 42.7863992 102.828629 42.7863992 102.828629 46.7601895 101.413306 46.7601895 101.413306 33.314625 102.828629 33.314625"></polygon>
                <path d="M3.91924597,11.7035746 L-0.000108870968,11.7035746 C-0.000108870968,5.22575202 5.28013306,-5.44354839e-05 11.7035202,-5.44354839e-05 L11.7035202,3.9193004 C7.45755242,3.9193004 3.91924597,7.40317137 3.91924597,11.7035746" id="Fill-18" fill="#1273EB" mask="url(#mask-2)"></path>
                <path d="M130.917393,23.4072036 L134.836748,23.4072036 C134.836748,29.8850262 129.556506,35.1108327 123.133119,35.1108327 L123.133119,31.1914778 C127.433522,31.2459133 130.917393,27.7620423 130.917393,23.4072036" id="Fill-19" fill="#1273EB" mask="url(#mask-2)"></path>
                <path d="M41.4797298,14.1531714 L35.0563427,14.1531714 L35.0563427,19.6511552 C35.0563427,21.8830101 36.1994879,22.6451069 37.7236815,22.6451069 C38.8668266,22.6451069 40.1732782,21.991881 41.1531169,21.4475262 L42.7861815,25.2580101 C41.2075524,26.2922843 39.4656169,27.1088165 36.9071492,27.1088165 C32.497875,27.1088165 30.2660202,24.6047843 30.2660202,20.0322036 L30.2660202,14.1531714 L26.2377944,14.1531714 L28.0341653,9.90720363 L30.3204556,9.90720363 L30.3204556,3.64712298 L35.1107782,3.64712298 L35.1107782,9.90720363 L41.5341653,9.90720363 L41.4797298,14.1531714 Z" id="Fill-20" fill="#FFFFFF" mask="url(#mask-2)"></path>
                <path d="M49.2641673,17.8004577 C49.2641673,20.6855383 51.2782802,22.6996512 53.945619,22.6996512 C56.6129577,22.6996512 58.681506,20.6855383 58.681506,17.8004577 C58.681506,14.915377 56.6673931,12.9012641 53.945619,12.9012641 C51.2238448,12.9012641 49.2641673,14.915377 49.2641673,17.8004577 M63.5262641,17.8004577 C63.5262641,23.1351351 59.4436028,27.1089254 53.945619,27.1089254 C48.4476351,27.1089254 44.3649738,23.1351351 44.3649738,17.8004577 C44.3649738,12.4657802 48.4476351,8.49198992 53.945619,8.49198992 C59.4436028,8.49198992 63.5262641,12.4657802 63.5262641,17.8004577" id="Fill-21" fill="#FFFFFF" mask="url(#mask-2)"></path>
                <path d="M79.5845685,9.25397782 L77.6793266,13.6088165 C76.9172298,13.2822036 76.264004,13.0644617 75.2841653,13.0644617 C73.0523105,13.0644617 71.5281169,14.4253488 71.5281169,17.038252 L71.5281169,26.6733327 L66.7377944,26.6733327 L66.7377944,8.9818004 L71.3648105,8.9818004 L71.3648105,10.9414778 C72.4535202,9.25397782 74.1954556,8.54631653 76.372875,8.54631653 C77.4071492,8.49188105 78.9313427,8.9818004 79.5845685,9.25397782" id="Fill-22" fill="#FFFFFF" mask="url(#mask-2)"></path>
                <path d="M87.2055363,3.15736694 C87.2055363,4.89930242 85.8446492,6.20575403 84.1571492,6.20575403 C82.4152137,6.20575403 81.1087621,4.89930242 81.1087621,3.15736694 C81.1087621,1.41543145 82.4152137,0.108979839 84.1571492,0.108979839 C85.8446492,0.108979839 87.2055363,1.41543145 87.2055363,3.15736694" id="Fill-23" fill="#FFFFFF" mask="url(#mask-2)"></path>
                <polygon id="Fill-24" fill="#FFFFFF" mask="url(#mask-2)" points="81.7620968 26.6733871 86.5524194 26.6733871 86.5524194 8.98185484 81.7620968 8.98185484"></polygon>
                <path d="M22.9174476,13.880994 C21.502125,13.1733327 19.2702702,12.4656714 17.2561573,12.4112359 C15.4597863,12.4112359 14.5343831,13.0644617 14.5343831,14.0443004 C14.5343831,15.0785746 15.8408347,15.350752 17.4194637,15.568494 L18.9980927,15.7862359 C22.8630121,16.3850262 24.985996,18.0725262 24.985996,21.0664778 C24.985996,24.7136552 21.9920444,27.1088165 16.8751089,27.1088165 C14.4799476,27.1088165 11.3226895,26.6733327 8.98196371,25.0402681 L10.8872056,21.3930907 C12.4113992,22.3729294 14.2622056,23.1350262 16.9295444,23.1350262 C19.1613992,23.1350262 20.1956734,22.5362359 20.1956734,21.4475262 C20.1956734,20.5765585 19.3247056,20.0866391 17.2561573,19.8144617 L15.7863992,19.5967198 C11.7037379,19.0523649 9.63518952,17.255994 9.63518952,14.2076069 C9.63518952,10.5604294 12.4658347,8.43744556 17.0928508,8.43744556 C19.923496,8.43744556 22.1553508,8.9818004 24.4960766,10.1249456 L22.9174476,13.880994 Z" id="Fill-25" fill="#FFFFFF" mask="url(#mask-2)"></path>
                <path d="M122.860778,13.880994 C121.445456,13.1733327 119.213601,12.4656714 117.199488,12.4112359 C115.403117,12.4112359 114.477714,13.0644617 114.477714,14.0443004 C114.477714,15.0785746 115.784165,15.350752 117.362794,15.568494 L118.941423,15.7862359 C122.806343,16.3850262 124.929327,18.0725262 124.929327,21.0664778 C124.929327,24.7136552 121.935375,27.1088165 116.81844,27.1088165 C114.423278,27.1088165 111.26602,26.6733327 108.925294,25.0402681 L110.830536,21.3930907 C112.35473,22.3729294 114.205536,23.1350262 116.872875,23.1350262 C119.10473,23.1350262 120.139004,22.5362359 120.139004,21.4475262 C120.139004,20.5765585 119.268036,20.0866391 117.199488,19.8144617 L115.72973,19.5967198 C111.647069,19.0523649 109.57852,17.255994 109.57852,14.2076069 C109.57852,10.5604294 112.409165,8.43744556 117.036181,8.43744556 C119.866827,8.43744556 122.098681,8.9818004 124.439407,10.1249456 L122.860778,13.880994 Z" id="Fill-26" fill="#FFFFFF" mask="url(#mask-2)"></path>
                <path d="M95.1531714,16.1673931 C95.5886552,13.9899738 96.8951069,12.6290867 99.1269617,12.6290867 C101.19551,12.6290867 102.556397,13.9355383 102.991881,16.1673931 L95.1531714,16.1673931 Z M107.782204,17.8004577 C107.782204,12.3024738 104.298333,8.49198992 99.1813972,8.49198992 C93.9011552,8.49198992 90.1995423,12.3024738 90.1995423,17.8548931 C90.1995423,23.4073125 93.9555907,27.1089254 99.3991391,27.1089254 C102.229784,27.1089254 104.57051,26.2379577 106.421317,24.931506 L104.788252,21.1754577 C103.427365,22.4274738 101.358817,23.0262641 99.616881,23.0262641 C97.3850262,23.0262641 95.5886552,21.9375544 95.0443004,19.3246512 L107.618897,19.3246512 C107.782204,18.9980383 107.782204,18.3448125 107.782204,17.8004577 L107.782204,17.8004577 Z" id="Fill-27" fill="#FFFFFF" mask="url(#mask-2)"></path>
            </g>
        </g>
    </g>
</svg>